<svg version="1.2" xmlns="http://www.w3.org/2000/svg" viewBox="0 0 1063 298" width="514" height="144">
	<title>Lunarr-logo-svg</title>
	<style>
		.s0 { fill: #00ccff } 
		.s1 { fill: #ffffff } 
		.s2 { fill: #223948 } 
	</style>
	<g id="#00ccffff">
		<path id="Layer" class="s0" d="m578.3 115.3c6.5-11.3 12.9-22.7 19.7-33.9 20.7 35.3 40.9 70.8 61.5 106.2 12.2 21.2 24.7 42.3 36.7 63.7-12.7 0.2-25.4 0.5-38.1-0.1-9-16.6-18.8-32.8-28.1-49.2-10.7-18.2-20.9-36.6-31.8-54.6-20.2 34.4-40 69.1-60 103.6l-0.4 0.6c-12.6-0.2-25.3-0.1-38-0.1 3.4-7.2 7.9-13.9 11.8-20.9 22.2-38.4 44.4-76.9 66.7-115.3z"/>
	</g>
	<g id="#ffffffff">
		<path id="Layer" class="s1" d="m123.1 23.4c9.1 0.2 18.3 0.1 27.5 0.1q-0.1 114 0 228.1c-9.2-0.1-18.4-0.1-27.5 0q-0.2-114.1 0-228.2z"/>
		<path id="Layer" class="s1" d="m426.3 84.2c13-1.9 27.2-0.2 38.3 7.2 10.6 7.1 17.3 18.9 20 31.1 3.1 12.3 2.4 25 2.4 37.5 0 30.5 0 61 0 91.5-9.1 0.1-18.3-0.1-27.4 0-0.2-29.8 0-59.7-0.1-89.5-0.1-11.6 0-23.3-3-34.6-1.9-7.4-7.4-13.9-14.8-16.1-9.7-2.9-20.3-2.3-29.6 1.6-9.6 3.9-18.1 9.8-26.1 16.3-0.1 40.7 0 81.5 0 122.2-9.2 0.2-18.3 0-27.5 0.1-0.3-54.4 0.1-108.9-0.1-163.4 9.2-0.2 18.4-0.1 27.6-0.1 0 6 0 12 0 18.1 11.6-10.1 24.8-19.4 40.3-21.9z"/>
		<path id="Layer" class="s1" d="m189.8 88q13.7 0 27.5 0c0.1 27 0 54 0 81 0.1 11.9-0.3 23.9 1.2 35.8 1.1 7.4 3.7 15.1 9.7 20 6.1 4.8 14.4 5.3 21.9 5.1 13.6-0.8 25.8-8.3 36.5-16.3 1.6-1.6 4.6-2.8 4.2-5.6q0-60 0-120 13.8 0 27.6 0c-0.1 54.5 0.2 109.1-0.2 163.6-9.1-0.1-18.2-0.1-27.3 0-0.2-6 0-12-0.1-18-11.3 9.1-23.3 18.6-37.9 21.3-13.8 2.5-28.9 0.9-40.8-7-10.6-7-17.1-18.8-20-31-3-12.1-2.3-24.6-2.4-36.9 0.1-30.7 0-61.3 0.1-92z"/>
		<path id="Layer" class="s1" d="m709.4 88.1c9.2-0.2 18.4-0.1 27.6-0.1 0 8.1-0.1 16.1 0 24.1 11.3-9.5 23.3-19.4 38-22.9 6.9-1.7 14.2-1.5 21.2-0.3-0.1 9.7 0 19.5-0.1 29.2-8.2-1.9-16.8-2.1-25.1-0.8-12.7 2.2-24.5 9-33.7 18.1-0.8 7.4-0.1 15.1-0.3 22.6q0 46.7 0 93.5c-9.2 0.1-18.3-0.1-27.5 0-0.3-54.4 0.1-108.9-0.1-163.4z"/>
		<path id="Layer" class="s1" d="m817.3 88.1c9.3-0.2 18.5-0.1 27.7-0.1 0 8.1-0.1 16.1 0 24.1 11.3-9.5 23.3-19.4 38-22.9 6.9-1.7 14.2-1.5 21.2-0.3-0.1 9.7 0 19.5-0.1 29.2-8.2-1.9-16.8-2.1-25-0.8-12.8 2.2-24.6 9-33.8 18.1-0.8 7.5-0.1 15.1-0.3 22.6q0 46.7 0 93.5c-9.2 0.1-18.3-0.1-27.5 0-0.3-54.4 0.1-108.9-0.2-163.4z"/>
	</g>
	<g id="#223948ff">
		<path id="Layer" class="s2" d="m538.2 251c20-34.5 39.8-69.2 60-103.6 10.9 18 21.1 36.4 31.8 54.6 9.3 16.4 19.1 32.6 28.1 49.2-11.3 1.3-22.7 0.4-34.1 0.6q-29.5 0-59 0.1c-9-0.4-18 0.7-26.8-0.9z"/>
	</g>
</svg>